<svg xmlns="http://www.w3.org/2000/svg" xmlns:xlink="http://www.w3.org/1999/xlink" width="500" zoomAndPan="magnify" viewBox="0 0 375 374.999991" height="500" preserveAspectRatio="xMidYMid meet" version="1.0"><defs><g/><clipPath id="150a8a57b4"><path d="M 137.488281 106 L 237.238281 106 L 237.238281 190.089844 L 137.488281 190.089844 Z M 137.488281 106 " clip-rule="nonzero"/></clipPath><clipPath id="1f02958035"><path d="M 158 100.089844 L 218 100.089844 L 218 161 L 158 161 Z M 158 100.089844 " clip-rule="nonzero"/></clipPath></defs><g clip-path="url(#150a8a57b4)"><path fill="#008037" d="M 137.683594 106.652344 C 142.796875 125.632812 156.640625 141.027344 174.90625 148.03125 C 170.335938 133.894531 160.796875 121.921875 148.082031 114.375 C 171.171875 125.09375 185.773438 148.082031 186.265625 173.136719 L 186.265625 180.070312 C 184.621094 178.914062 182.285156 178.175781 179.703125 178.175781 C 177.441406 178.175781 175.351562 178.742188 173.753906 179.675781 L 173.726562 179.699219 C 173.285156 179.972656 172.867188 180.265625 172.5 180.5625 C 169.867188 182.578125 167.730469 185.207031 166.300781 188.207031 C 166.058594 188.773438 166.328125 189.4375 166.867188 189.707031 C 167.433594 189.976562 168.097656 189.757812 168.390625 189.191406 C 168.910156 188.132812 169.546875 187.125 170.238281 186.214844 C 170.972656 185.109375 172.082031 184.296875 173.335938 183.953125 C 172.375 184.46875 171.589844 185.234375 171.074219 186.191406 C 172.277344 188.601562 175.671875 190.347656 179.679688 190.347656 C 184.695312 190.347656 188.75 187.617188 188.75 184.273438 L 188.773438 184.273438 L 188.773438 173.160156 C 189.265625 148.105469 203.871094 125.117188 226.957031 114.398438 C 214.222656 121.945312 204.683594 133.921875 200.132812 148.058594 C 218.402344 141.027344 232.21875 125.632812 237.359375 106.679688 C 211.320312 114.324219 192.488281 135.9375 187.546875 161.652344 C 182.605469 135.910156 163.769531 114.300781 137.734375 106.679688 Z M 137.683594 106.652344 " fill-opacity="1" fill-rule="evenodd"/></g><g clip-path="url(#1f02958035)"><path fill="#ffcc29" d="M 161.433594 115.285156 C 169.84375 123.027344 176.605469 132.394531 181.300781 142.820312 C 176.308594 133.011719 169.054688 124.40625 160.132812 117.792969 C 160.523438 116.929688 160.96875 116.09375 161.433594 115.285156 Z M 216.507812 120.445312 C 202.914062 130.132812 193.542969 144.617188 190.152344 160.816406 C 203.332031 159.808594 214.148438 150.394531 217.296875 137.925781 C 212.328125 142.058594 206.675781 145.453125 200.527344 147.859375 C 200.503906 147.910156 200.503906 147.960938 200.476562 148.03125 C 200.476562 147.984375 200.503906 147.933594 200.503906 147.886719 C 200.378906 147.933594 200.230469 147.984375 200.109375 148.03125 C 200.476562 146.925781 200.847656 145.820312 201.265625 144.738281 C 203.871094 135.417969 209.207031 127.035156 216.605469 120.691406 C 216.582031 120.59375 216.558594 120.519531 216.507812 120.421875 Z M 184.839844 160.769531 C 181.472656 144.789062 172.300781 130.453125 158.976562 120.789062 C 158.828125 121.257812 158.65625 121.75 158.535156 122.21875 C 166.007812 129.199219 171.664062 138.050781 174.882812 147.933594 C 174.957031 147.960938 175.054688 148.007812 175.128906 148.03125 C 175.054688 148.007812 174.980469 147.984375 174.882812 147.960938 C 174.882812 147.984375 174.90625 148.007812 174.90625 148.03125 C 174.734375 147.960938 174.5625 147.910156 174.390625 147.835938 C 169.449219 146.460938 164.628906 144.738281 159.933594 142.699219 C 164.261719 152.558594 173.652344 159.6875 184.839844 160.746094 Z M 160.132812 117.863281 C 174.097656 128.3125 183.859375 143.65625 187.347656 160.917969 C 187.445312 160.917969 187.546875 160.917969 187.644531 160.917969 C 187.863281 159.808594 188.109375 158.726562 188.382812 157.644531 C 191.382812 140.753906 200.453125 125.511719 213.878906 114.839844 C 208.542969 105.988281 198.855469 100.089844 187.792969 100.089844 C 175.496094 100.089844 164.925781 107.390625 160.132812 117.863281 Z M 160.132812 117.863281 " fill-opacity="1" fill-rule="evenodd"/></g><g fill="#008037" fill-opacity="1"><g transform="translate(127.235027, 238.85754)"><g><path d="M 11.375 -21.730469 C 9.074219 -23.144531 7.699219 -25.003906 7.699219 -26.6875 C 7.699219 -28.765625 9.292969 -30.625 12.214844 -30.625 C 15.578125 -30.625 18.320312 -27.304688 19.03125 -21.90625 C 20.003906 -22.394531 21.996094 -23.675781 23.191406 -25.09375 C 26.023438 -28.546875 21.023438 -33.988281 13.1875 -33.988281 C 6.902344 -33.988281 1.726562 -29.785156 1.726562 -24.339844 C 1.726562 -21.554688 2.875 -18.277344 8.410156 -15.089844 C 15.933594 -10.796875 18.632812 -9.957031 18.632812 -6.460938 C 18.632812 -4.382812 16.417969 -2.964844 14.074219 -2.964844 C 10.132812 -2.964844 6.417969 -8.277344 6.285156 -13.1875 C 6.285156 -13.1875 2.964844 -11.417969 1.59375 -9.160156 C -0.175781 -6.152344 4.292969 0.441406 13.277344 0.441406 C 19.25 0.441406 24.871094 -3.273438 24.871094 -9.160156 C 24.871094 -15.667969 16.816406 -18.367188 11.375 -21.730469 Z M 11.375 -21.730469 "/></g></g></g><g fill="#008037" fill-opacity="1"><g transform="translate(152.150585, 238.85754)"><g><path d="M 36.335938 -6.285156 L 36.335938 -13.410156 C 36.335938 -19.648438 36.734375 -23.855469 32.128906 -23.898438 C 29.605469 -23.941406 27.085938 -21.816406 22.480469 -17.613281 L 22.480469 -17.347656 C 22.394531 -21.375 21.816406 -23.898438 18.277344 -23.898438 C 15.753906 -23.941406 13.234375 -21.816406 8.628906 -17.613281 L 8.628906 -20.136719 C 8.628906 -21.996094 7.125 -23.5 5.265625 -23.5 L 1.503906 -23.5 C 1.902344 -22.660156 2.300781 -19.695312 2.300781 -17.171875 L 2.300781 -3.320312 C 2.300781 -1.460938 3.804688 0.0429688 5.664062 0.0429688 L 9.472656 0.0429688 C 9.027344 -0.796875 8.628906 -3.761719 8.628906 -6.285156 L 8.628906 -15.089844 C 13.675781 -20.136719 16.199219 -21.597656 16.199219 -14.027344 L 16.199219 -3.320312 C 16.199219 -1.460938 17.703125 0.0429688 19.515625 0.0429688 L 23.324219 0.0429688 C 22.878906 -0.796875 22.480469 -3.761719 22.480469 -6.285156 L 22.480469 -13.410156 C 22.480469 -13.984375 22.480469 -14.558594 22.480469 -15.089844 C 27.527344 -20.136719 30.050781 -21.597656 30.050781 -14.027344 L 30.050781 -3.320312 C 30.050781 -1.460938 31.554688 0.0429688 33.414062 0.0429688 L 37.175781 0.0429688 C 36.734375 -0.796875 36.335938 -3.761719 36.335938 -6.285156 Z M 36.335938 -6.285156 "/></g></g></g><g fill="#008037" fill-opacity="1"><g transform="translate(189.988634, 238.85754)"><g><path d="M 20.667969 -6.238281 L 20.667969 -13.851562 C 20.625 -20.578125 17.082031 -23.941406 11.195312 -23.941406 C 2.832031 -23.941406 0.839844 -18.054688 3.9375 -16.332031 C 3.9375 -18.367188 6.460938 -20.003906 9.117188 -20.003906 C 11.90625 -20.003906 13.453125 -18.765625 14.074219 -16.550781 C 7.921875 -14.160156 0.972656 -11.949219 0.972656 -6.238281 C 0.972656 -2.875 3.453125 0.488281 7.347656 0.488281 C 9.691406 0.488281 12.746094 -1.503906 13.144531 -5 C 10.488281 -2.875 7.257812 -3.496094 7.257812 -7.523438 C 7.257812 -11.152344 11.375 -13.675781 14.339844 -14.78125 C 14.382812 -14.472656 14.382812 -14.160156 14.382812 -13.851562 L 14.382812 -3.273438 C 14.382812 -1.417969 15.886719 0.0898438 17.746094 0.0898438 L 21.507812 0.0898438 C 21.109375 -0.753906 20.667969 -3.71875 20.667969 -6.238281 Z M 20.667969 -6.238281 "/></g></g></g><g fill="#008037" fill-opacity="1"><g transform="translate(211.850601, 238.85754)"><g><path d="M 17.039062 -23.898438 C 14.515625 -23.898438 12.390625 -21.375 8.628906 -17.613281 L 8.628906 -20.136719 C 8.628906 -21.996094 7.125 -23.5 5.265625 -23.5 L 1.503906 -23.5 C 1.902344 -22.660156 2.300781 -19.695312 2.300781 -17.171875 L 2.300781 -3.320312 C 2.300781 -1.460938 3.804688 0.0429688 5.664062 0.0429688 L 9.472656 0.0429688 C 9.027344 -0.796875 8.628906 -3.761719 8.628906 -6.285156 L 8.628906 -15.089844 C 13.234375 -19.695312 14.515625 -19.296875 14.515625 -15.488281 C 14.515625 -14.605469 15.488281 -14.027344 16.332031 -14.382812 L 20.800781 -18.453125 C 20.800781 -20.136719 20.800781 -23.898438 17.039062 -23.898438 Z M 17.039062 -23.898438 "/></g></g></g><g fill="#008037" fill-opacity="1"><g transform="translate(231.455557, 238.85754)"><g><path d="M 10.664062 -9.207031 L 10.664062 -20.136719 L 13.410156 -20.136719 C 14.515625 -20.136719 15.488281 -20.800781 15.886719 -21.816406 L 16.550781 -23.5 L 10.664062 -23.5 L 10.664062 -28.546875 C 10.664062 -30.359375 9.160156 -31.863281 7.300781 -31.863281 L 3.539062 -31.863281 C 3.9375 -31.023438 4.382812 -28.101562 4.382812 -25.578125 L 4.382812 -23.457031 L 2.300781 -23.457031 C 1.195312 -23.457031 0.222656 -22.792969 -0.222656 -21.773438 L -0.839844 -20.136719 L 4.382812 -20.136719 L 4.382812 -8.363281 C 4.382812 -1.238281 7.347656 0.488281 10.664062 0.441406 C 12.878906 0.441406 15.269531 -0.398438 16.996094 -2.523438 C 11.949219 -1.683594 10.664062 -5.621094 10.664062 -9.207031 Z M 10.664062 -9.207031 "/></g></g></g><g fill="#ffcc29" fill-opacity="1"><g transform="translate(148.868922, 258.182264)"><g><path d="M 3.929688 -9.378906 C 4.089844 -9.378906 4.269531 -9.378906 4.429688 -9.378906 C 4.589844 -9.378906 4.769531 -9.433594 4.933594 -9.433594 C 5.113281 -9.433594 5.273438 -9.398438 5.433594 -9.398438 C 5.613281 -9.398438 5.773438 -9.378906 5.9375 -9.378906 C 6.117188 -9.378906 6.277344 -9.433594 6.457031 -9.433594 C 6.617188 -9.433594 6.78125 -9.378906 6.960938 -9.378906 C 7.121094 -9.378906 7.28125 -9.433594 7.460938 -9.433594 C 7.675781 -9.433594 7.839844 -9.433594 8 -9.488281 C 8.160156 -9.558594 8.285156 -9.667969 8.375 -9.847656 C 8.429688 -9.992188 8.5 -10.152344 8.519531 -10.367188 C 8.539062 -10.601562 8.5 -10.78125 8.464844 -10.90625 C 8.394531 -11.101562 8.285156 -11.226562 8.105469 -11.28125 C 7.945312 -11.316406 7.765625 -11.335938 7.570312 -11.335938 C 7.40625 -11.335938 7.246094 -11.316406 7.085938 -11.316406 C 6.941406 -11.316406 6.78125 -11.351562 6.617188 -11.351562 C 6.457031 -11.351562 6.3125 -11.335938 6.152344 -11.335938 C 5.992188 -11.335938 5.828125 -11.316406 5.667969 -11.335938 C 5.523438 -11.335938 5.363281 -11.335938 5.203125 -11.335938 C 5.039062 -11.335938 4.898438 -11.335938 4.734375 -11.335938 C 4.574219 -11.335938 4.414062 -11.371094 4.269531 -11.371094 C 4.105469 -11.371094 3.945312 -11.390625 3.785156 -11.390625 C 3.640625 -11.371094 3.480469 -11.351562 3.316406 -11.335938 C 3.175781 -11.335938 3.03125 -11.300781 2.886719 -11.28125 C 2.746094 -11.28125 2.582031 -11.300781 2.457031 -11.300781 C 2.296875 -11.300781 2.152344 -11.265625 2.027344 -11.265625 C 1.757812 -11.246094 1.722656 -11.441406 1.558594 -11.28125 C 1.398438 -11.101562 1.542969 -11.085938 1.507812 -10.78125 C 1.488281 -10.636719 1.523438 -10.457031 1.507812 -10.277344 C 1.488281 -10.117188 1.453125 -9.953125 1.433594 -9.773438 C 1.433594 -9.667969 1.453125 -9.46875 1.472656 -9.273438 C 1.472656 -9.074219 1.417969 -8.894531 1.417969 -8.769531 C 1.417969 -8.609375 1.398438 -8.449219 1.398438 -8.285156 C 1.398438 -8.105469 1.417969 -7.945312 1.398438 -7.785156 C 1.398438 -7.605469 1.433594 -7.445312 1.433594 -7.28125 C 1.433594 -7.121094 1.433594 -6.941406 1.433594 -6.78125 C 1.417969 -6.617188 1.417969 -6.4375 1.417969 -6.277344 C 1.417969 -6.117188 1.382812 -5.953125 1.382812 -5.773438 C 1.382812 -5.613281 1.398438 -5.453125 1.398438 -5.273438 C 1.398438 -5.113281 1.417969 -4.949219 1.417969 -4.789062 C 1.417969 -4.609375 1.363281 -4.449219 1.363281 -4.285156 C 1.34375 -4.105469 1.417969 -3.945312 1.417969 -3.785156 C 1.417969 -3.625 1.398438 -3.445312 1.398438 -3.28125 C 1.398438 -3.121094 1.363281 -2.941406 1.363281 -2.78125 C 1.363281 -2.617188 1.398438 -2.457031 1.398438 -2.277344 C 1.398438 -2.117188 1.34375 -1.953125 1.34375 -1.777344 C 1.328125 -1.578125 1.34375 -1.417969 1.34375 -1.238281 C 1.363281 -1.074219 1.398438 -0.898438 1.382812 -0.679688 C 1.382812 -0.464844 1.433594 -0.304688 1.558594 -0.199219 C 1.6875 -0.109375 1.882812 -0.0898438 2.082031 -0.0546875 C 2.242188 -0.0351562 2.421875 0 2.617188 0 C 2.796875 0 2.960938 0 3.050781 -0.0703125 C 3.191406 -0.144531 3.226562 -0.304688 3.265625 -0.429688 C 3.300781 -0.59375 3.300781 -0.734375 3.316406 -0.859375 C 3.335938 -1.023438 3.371094 -1.183594 3.390625 -1.34375 C 3.390625 -1.507812 3.355469 -1.6875 3.355469 -1.847656 C 3.355469 -2.007812 3.355469 -2.171875 3.355469 -2.332031 C 3.335938 -2.492188 3.355469 -2.65625 3.335938 -2.816406 C 3.335938 -2.976562 3.335938 -3.140625 3.316406 -3.300781 C 3.316406 -3.445312 3.335938 -3.585938 3.335938 -3.730469 C 3.355469 -3.875 3.335938 -4.019531 3.335938 -4.144531 C 3.355469 -4.394531 3.265625 -4.414062 3.40625 -4.554688 C 3.570312 -4.71875 3.570312 -4.589844 3.839844 -4.609375 C 3.964844 -4.628906 4.105469 -4.628906 4.269531 -4.628906 C 4.414062 -4.628906 4.554688 -4.644531 4.71875 -4.628906 C 4.859375 -4.644531 5.023438 -4.644531 5.164062 -4.628906 C 5.308594 -4.628906 5.46875 -4.644531 5.613281 -4.644531 C 5.773438 -4.644531 5.917969 -4.628906 6.082031 -4.628906 C 6.222656 -4.628906 6.386719 -4.644531 6.527344 -4.664062 C 6.671875 -4.664062 6.832031 -4.644531 6.996094 -4.664062 C 7.15625 -4.699219 7.265625 -4.84375 7.355469 -4.984375 C 7.445312 -5.113281 7.480469 -5.273438 7.53125 -5.433594 C 7.585938 -5.597656 7.640625 -5.738281 7.640625 -5.863281 C 7.621094 -6.042969 7.550781 -6.171875 7.445312 -6.277344 C 7.355469 -6.367188 7.226562 -6.457031 7.050781 -6.492188 C 6.871094 -6.527344 6.671875 -6.546875 6.492188 -6.566406 C 6.296875 -6.566406 6.097656 -6.527344 5.917969 -6.527344 C 5.757812 -6.527344 5.597656 -6.582031 5.417969 -6.582031 C 5.253906 -6.582031 5.09375 -6.582031 4.914062 -6.582031 C 4.753906 -6.582031 4.589844 -6.546875 4.414062 -6.546875 C 4.25 -6.546875 4.089844 -6.527344 3.910156 -6.527344 C 3.75 -6.527344 3.585938 -6.546875 3.425781 -6.546875 C 3.425781 -6.726562 3.445312 -6.871094 3.445312 -7.03125 C 3.445312 -7.191406 3.390625 -7.355469 3.390625 -7.496094 C 3.390625 -7.660156 3.445312 -7.820312 3.445312 -7.980469 C 3.445312 -8.125 3.40625 -8.285156 3.40625 -8.449219 C 3.40625 -8.609375 3.40625 -8.769531 3.40625 -8.933594 C 3.40625 -9.074219 3.445312 -9.21875 3.445312 -9.378906 C 3.605469 -9.378906 3.75 -9.378906 3.929688 -9.378906 Z M 3.929688 -9.378906 "/></g></g></g><g fill="#ffcc29" fill-opacity="1"><g transform="translate(159.752914, 258.182264)"><g><path d="M 3.625 -1.507812 C 3.800781 -1.507812 3.980469 -1.523438 4.160156 -1.523438 C 4.339844 -1.523438 4.519531 -1.523438 4.679688 -1.523438 C 4.859375 -1.542969 5.039062 -1.523438 5.21875 -1.523438 C 5.34375 -1.542969 5.488281 -1.558594 5.632812 -1.558594 C 5.773438 -1.578125 5.917969 -1.558594 6.0625 -1.558594 C 6.222656 -1.578125 6.367188 -1.578125 6.476562 -1.578125 C 6.566406 -1.597656 6.652344 -1.523438 6.691406 -1.433594 C 6.726562 -1.308594 6.78125 -1.113281 6.871094 -0.898438 C 6.921875 -0.734375 7.050781 -0.554688 7.121094 -0.394531 C 7.175781 -0.199219 7.300781 -0.109375 7.480469 -0.0546875 C 7.621094 0 7.800781 0.0546875 8 0.0546875 C 8.179688 0.0546875 8.359375 0.0195312 8.539062 0.0195312 C 8.789062 0.0195312 8.96875 -0.0195312 9.09375 -0.0898438 C 9.273438 -0.160156 9.328125 -0.304688 9.21875 -0.574219 C 9.164062 -0.699219 9.09375 -0.84375 9.023438 -1.023438 C 8.96875 -1.164062 8.894531 -1.308594 8.824219 -1.472656 C 8.769531 -1.613281 8.734375 -1.777344 8.664062 -1.917969 C 8.609375 -2.082031 8.539062 -2.222656 8.484375 -2.367188 C 8.410156 -2.527344 8.359375 -2.671875 8.285156 -2.816406 C 8.234375 -2.976562 8.195312 -3.140625 8.144531 -3.28125 C 8.070312 -3.425781 7.980469 -3.570312 7.910156 -3.730469 C 7.855469 -3.875 7.800781 -4.054688 7.75 -4.195312 C 7.695312 -4.359375 7.660156 -4.519531 7.585938 -4.679688 C 7.53125 -4.84375 7.445312 -4.984375 7.371094 -5.128906 C 7.316406 -5.292969 7.265625 -5.453125 7.210938 -5.613281 C 7.136719 -5.773438 7.085938 -5.917969 7.011719 -6.082031 C 6.960938 -6.242188 6.871094 -6.386719 6.816406 -6.546875 C 6.761719 -6.691406 6.691406 -6.851562 6.617188 -7.011719 C 6.566406 -7.15625 6.527344 -7.335938 6.476562 -7.480469 C 6.421875 -7.640625 6.3125 -7.785156 6.242188 -7.945312 C 6.1875 -8.089844 6.132812 -8.25 6.082031 -8.410156 C 6.007812 -8.574219 5.917969 -8.71875 5.863281 -8.859375 C 5.773438 -9.074219 5.722656 -9.253906 5.632812 -9.363281 C 5.488281 -9.507812 5.308594 -9.523438 5.113281 -9.542969 C 4.949219 -9.558594 4.769531 -9.558594 4.574219 -9.558594 C 4.429688 -9.542969 4.234375 -9.558594 4.019531 -9.433594 C 3.890625 -9.363281 3.75 -9.238281 3.625 -9.023438 C 3.550781 -8.878906 3.480469 -8.699219 3.425781 -8.484375 C 3.371094 -8.324219 3.300781 -8.179688 3.246094 -8.035156 C 3.175781 -7.875 3.175781 -7.710938 3.121094 -7.550781 C 3.066406 -7.40625 2.976562 -7.265625 2.921875 -7.101562 C 2.851562 -6.960938 2.832031 -6.78125 2.78125 -6.636719 C 2.726562 -6.476562 2.636719 -6.332031 2.582031 -6.1875 C 2.527344 -6.027344 2.476562 -5.863281 2.421875 -5.722656 C 2.367188 -5.558594 2.332031 -5.398438 2.261719 -5.253906 C 2.207031 -5.09375 2.152344 -4.933594 2.097656 -4.789062 C 2.042969 -4.628906 1.992188 -4.464844 1.9375 -4.324219 C 1.882812 -4.160156 1.792969 -4.035156 1.738281 -3.875 C 1.6875 -3.710938 1.6875 -3.550781 1.632812 -3.390625 C 1.558594 -3.246094 1.507812 -3.085938 1.453125 -2.941406 C 1.398438 -2.78125 1.308594 -2.636719 1.253906 -2.492188 C 1.203125 -2.332031 1.183594 -2.171875 1.128906 -2.007812 C 1.074219 -1.867188 1.003906 -1.722656 0.949219 -1.558594 C 0.914062 -1.488281 0.84375 -1.328125 0.769531 -1.148438 C 0.71875 -1.003906 0.664062 -0.859375 0.628906 -0.71875 C 0.554688 -0.539062 0.519531 -0.359375 0.519531 -0.285156 C 0.484375 -0.0195312 0.574219 0.0351562 0.789062 0.0351562 C 0.914062 0.0351562 1.09375 0.0195312 1.308594 0.0351562 C 1.398438 0.0351562 1.558594 0.0351562 1.722656 0.0195312 C 1.867188 0.0195312 2.007812 0.0195312 2.132812 -0.0195312 C 2.296875 -0.0546875 2.4375 -0.109375 2.492188 -0.214844 C 2.582031 -0.375 2.636719 -0.519531 2.691406 -0.644531 C 2.761719 -0.789062 2.816406 -0.933594 2.886719 -1.074219 C 2.960938 -1.21875 3.011719 -1.363281 3.085938 -1.523438 C 3.265625 -1.523438 3.460938 -1.507812 3.625 -1.507812 Z M 3.75 -3.890625 C 3.820312 -4.054688 3.929688 -4.195312 3.980469 -4.359375 C 4.054688 -4.519531 4.070312 -4.71875 4.144531 -4.878906 C 4.195312 -5.039062 4.269531 -5.203125 4.339844 -5.363281 C 4.414062 -5.523438 4.5 -5.667969 4.574219 -5.847656 C 4.644531 -6.007812 4.679688 -6.1875 4.734375 -6.367188 C 4.824219 -6.222656 4.914062 -6.082031 4.984375 -5.9375 C 5.074219 -5.792969 5.128906 -5.648438 5.203125 -5.523438 C 5.273438 -5.378906 5.34375 -5.238281 5.417969 -5.113281 C 5.488281 -4.96875 5.558594 -4.824219 5.632812 -4.679688 C 5.6875 -4.539062 5.722656 -4.375 5.773438 -4.234375 C 5.847656 -4.089844 5.917969 -3.945312 5.972656 -3.800781 C 6.042969 -3.660156 6.132812 -3.515625 6.1875 -3.371094 C 6.007812 -3.371094 5.828125 -3.355469 5.648438 -3.355469 C 5.488281 -3.355469 5.308594 -3.390625 5.128906 -3.390625 C 4.96875 -3.390625 4.789062 -3.371094 4.609375 -3.371094 C 4.449219 -3.371094 4.269531 -3.371094 4.089844 -3.371094 C 3.929688 -3.371094 3.730469 -3.371094 3.550781 -3.371094 C 3.625 -3.535156 3.675781 -3.730469 3.75 -3.890625 Z M 3.75 -3.890625 "/></g></g></g><g fill="#ffcc29" fill-opacity="1"><g transform="translate(171.336146, 258.182264)"><g><path d="M 3.675781 -3.710938 C 3.855469 -3.75 4 -3.765625 4.144531 -3.785156 C 4.324219 -3.800781 4.464844 -3.785156 4.589844 -3.785156 C 4.789062 -3.785156 4.933594 -3.785156 5.058594 -3.730469 C 5.203125 -3.675781 5.308594 -3.570312 5.417969 -3.445312 C 5.488281 -3.335938 5.558594 -3.191406 5.648438 -3.03125 C 5.703125 -2.90625 5.757812 -2.761719 5.847656 -2.617188 C 5.917969 -2.457031 5.992188 -2.296875 6.082031 -2.132812 C 6.171875 -1.972656 6.222656 -1.792969 6.3125 -1.632812 C 6.386719 -1.472656 6.511719 -1.328125 6.582031 -1.164062 C 6.671875 -1.003906 6.742188 -0.84375 6.816406 -0.679688 C 6.90625 -0.539062 6.996094 -0.429688 7.050781 -0.324219 C 7.15625 -0.160156 7.246094 -0.0898438 7.355469 -0.0351562 C 7.480469 0.0195312 7.585938 0.0195312 7.765625 0 C 7.890625 0 8.035156 0 8.214844 0 C 8.449219 0 8.628906 -0.0195312 8.734375 -0.0546875 C 8.914062 -0.109375 8.914062 -0.214844 8.824219 -0.484375 C 8.789062 -0.609375 8.753906 -0.789062 8.644531 -0.988281 C 8.589844 -1.128906 8.484375 -1.273438 8.410156 -1.453125 C 8.339844 -1.597656 8.269531 -1.757812 8.195312 -1.917969 C 8.125 -2.082031 8.105469 -2.261719 8.035156 -2.421875 C 7.964844 -2.582031 7.875 -2.746094 7.820312 -2.886719 C 7.75 -3.050781 7.675781 -3.210938 7.621094 -3.371094 C 7.550781 -3.535156 7.445312 -3.675781 7.371094 -3.839844 C 7.316406 -3.964844 7.316406 -4.105469 7.355469 -4.234375 C 7.390625 -4.359375 7.480469 -4.464844 7.585938 -4.539062 C 7.75 -4.644531 7.910156 -4.71875 8.070312 -4.859375 C 8.179688 -4.984375 8.25 -5.128906 8.339844 -5.253906 C 8.449219 -5.398438 8.519531 -5.523438 8.589844 -5.667969 C 8.644531 -5.8125 8.71875 -5.953125 8.753906 -6.117188 C 8.789062 -6.277344 8.804688 -6.421875 8.824219 -6.582031 C 8.824219 -6.742188 8.804688 -6.90625 8.789062 -7.066406 C 8.753906 -7.210938 8.734375 -7.371094 8.679688 -7.53125 C 8.628906 -7.675781 8.554688 -7.820312 8.484375 -7.964844 C 8.394531 -8.089844 8.339844 -8.25 8.234375 -8.375 C 8.125 -8.484375 7.980469 -8.574219 7.855469 -8.679688 C 7.75 -8.769531 7.621094 -8.878906 7.480469 -8.96875 C 7.335938 -9.039062 7.191406 -9.09375 7.03125 -9.148438 C 6.886719 -9.199219 6.726562 -9.238281 6.566406 -9.273438 C 6.421875 -9.289062 6.257812 -9.308594 6.097656 -9.328125 C 5.9375 -9.34375 5.792969 -9.363281 5.632812 -9.378906 C 5.46875 -9.398438 5.308594 -9.417969 5.148438 -9.417969 C 5.003906 -9.417969 4.84375 -9.417969 4.679688 -9.417969 C 4.519531 -9.417969 4.359375 -9.433594 4.214844 -9.433594 C 4.054688 -9.433594 3.890625 -9.417969 3.730469 -9.417969 C 3.570312 -9.417969 3.40625 -9.417969 3.265625 -9.417969 C 3.101562 -9.417969 2.941406 -9.417969 2.78125 -9.417969 C 2.601562 -9.417969 2.4375 -9.417969 2.296875 -9.417969 C 2.097656 -9.398438 1.9375 -9.398438 1.792969 -9.363281 C 1.632812 -9.308594 1.523438 -9.238281 1.453125 -9.074219 C 1.398438 -8.949219 1.382812 -8.789062 1.382812 -8.589844 C 1.363281 -8.429688 1.34375 -8.269531 1.34375 -8.105469 C 1.34375 -7.945312 1.308594 -7.785156 1.308594 -7.621094 C 1.308594 -7.480469 1.328125 -7.316406 1.328125 -7.136719 C 1.328125 -6.976562 1.328125 -6.816406 1.328125 -6.652344 C 1.328125 -6.492188 1.308594 -6.332031 1.308594 -6.171875 C 1.308594 -6.027344 1.308594 -5.863281 1.308594 -5.703125 C 1.308594 -5.542969 1.328125 -5.378906 1.328125 -5.21875 C 1.328125 -5.058594 1.292969 -4.898438 1.292969 -4.734375 C 1.292969 -4.574219 1.292969 -4.414062 1.292969 -4.25 C 1.292969 -4.089844 1.308594 -3.929688 1.308594 -3.765625 C 1.308594 -3.605469 1.292969 -3.445312 1.292969 -3.28125 C 1.292969 -3.140625 1.308594 -2.976562 1.308594 -2.816406 C 1.308594 -2.65625 1.308594 -2.492188 1.308594 -2.332031 C 1.308594 -2.171875 1.328125 -2.007812 1.328125 -1.867188 C 1.328125 -1.6875 1.308594 -1.542969 1.308594 -1.382812 C 1.308594 -1.253906 1.328125 -1.113281 1.308594 -0.96875 C 1.308594 -0.824219 1.253906 -0.679688 1.273438 -0.539062 C 1.273438 -0.394531 1.328125 -0.25 1.382812 -0.144531 C 1.433594 -0.0546875 1.613281 0 1.792969 0.0195312 C 1.972656 0.0546875 2.171875 0.0546875 2.277344 0.0351562 C 2.402344 0.0195312 2.582031 0.0351562 2.746094 0.0195312 C 2.941406 0 3.101562 -0.0546875 3.15625 -0.179688 C 3.210938 -0.285156 3.246094 -0.449219 3.246094 -0.628906 C 3.265625 -0.769531 3.265625 -0.933594 3.265625 -1.09375 C 3.246094 -1.253906 3.226562 -1.417969 3.226562 -1.542969 C 3.226562 -1.722656 3.226562 -1.902344 3.226562 -2.0625 C 3.246094 -2.242188 3.210938 -2.421875 3.210938 -2.601562 C 3.210938 -2.761719 3.246094 -2.941406 3.246094 -3.121094 C 3.246094 -3.28125 3.210938 -3.480469 3.210938 -3.640625 C 3.371094 -3.675781 3.535156 -3.695312 3.675781 -3.710938 Z M 3.316406 -5.917969 C 3.316406 -6.0625 3.300781 -6.222656 3.300781 -6.367188 C 3.300781 -6.511719 3.316406 -6.652344 3.316406 -6.816406 C 3.316406 -6.960938 3.300781 -7.101562 3.300781 -7.265625 C 3.300781 -7.40625 3.300781 -7.550781 3.300781 -7.695312 C 3.480469 -7.695312 3.660156 -7.710938 3.839844 -7.730469 C 4.019531 -7.730469 4.214844 -7.710938 4.394531 -7.710938 C 4.574219 -7.710938 4.753906 -7.75 4.933594 -7.75 C 5.113281 -7.75 5.292969 -7.710938 5.46875 -7.695312 C 5.632812 -7.695312 5.792969 -7.695312 5.9375 -7.660156 C 6.097656 -7.621094 6.257812 -7.550781 6.386719 -7.480469 C 6.527344 -7.40625 6.636719 -7.300781 6.726562 -7.175781 C 6.832031 -7.050781 6.871094 -6.886719 6.871094 -6.742188 C 6.886719 -6.566406 6.832031 -6.402344 6.742188 -6.242188 C 6.652344 -6.097656 6.527344 -5.972656 6.386719 -5.863281 C 6.242188 -5.757812 6.097656 -5.667969 5.917969 -5.613281 C 5.757812 -5.542969 5.597656 -5.488281 5.417969 -5.46875 C 5.253906 -5.46875 5.074219 -5.46875 4.898438 -5.453125 C 4.71875 -5.453125 4.539062 -5.417969 4.359375 -5.417969 C 4.179688 -5.433594 4.019531 -5.46875 3.820312 -5.46875 C 3.660156 -5.488281 3.460938 -5.453125 3.28125 -5.453125 C 3.28125 -5.613281 3.316406 -5.773438 3.316406 -5.917969 Z M 3.316406 -5.917969 "/></g></g></g><g fill="#ffcc29" fill-opacity="1"><g transform="translate(182.937305, 258.182264)"><g><path d="M 3.140625 -1.648438 C 3.15625 -1.8125 3.175781 -1.972656 3.191406 -2.152344 C 3.191406 -2.3125 3.175781 -2.492188 3.191406 -2.65625 C 3.210938 -2.832031 3.265625 -3.011719 3.28125 -3.175781 C 3.28125 -3.355469 3.300781 -3.515625 3.316406 -3.675781 C 3.335938 -3.964844 3.316406 -4.144531 3.335938 -4.160156 C 3.390625 -4.070312 3.480469 -3.945312 3.535156 -3.800781 C 3.585938 -3.640625 3.640625 -3.496094 3.695312 -3.425781 C 3.75 -3.28125 3.820312 -3.140625 3.875 -2.996094 C 3.945312 -2.851562 3.980469 -2.691406 4.054688 -2.546875 C 4.105469 -2.402344 4.195312 -2.277344 4.269531 -2.132812 C 4.324219 -1.992188 4.394531 -1.847656 4.464844 -1.722656 C 4.539062 -1.578125 4.554688 -1.417969 4.628906 -1.273438 C 4.699219 -1.128906 4.808594 -1.023438 4.878906 -0.878906 C 4.949219 -0.734375 5.003906 -0.59375 5.074219 -0.449219 C 5.164062 -0.304688 5.308594 -0.144531 5.488281 -0.0351562 C 5.667969 0.0703125 5.882812 0.109375 6.027344 0.109375 C 6.1875 0.109375 6.402344 0.0546875 6.582031 -0.0703125 C 6.761719 -0.179688 6.921875 -0.339844 7.03125 -0.464844 C 7.101562 -0.574219 7.121094 -0.71875 7.15625 -0.84375 C 7.175781 -0.96875 7.226562 -1.09375 7.28125 -1.21875 C 7.335938 -1.363281 7.371094 -1.542969 7.425781 -1.6875 C 7.480469 -1.847656 7.570312 -1.992188 7.621094 -2.152344 C 7.695312 -2.296875 7.785156 -2.4375 7.839844 -2.601562 C 7.910156 -2.761719 7.945312 -2.921875 8.015625 -3.066406 C 8.070312 -3.226562 8.144531 -3.371094 8.195312 -3.535156 C 8.269531 -3.675781 8.339844 -3.820312 8.410156 -3.980469 C 8.464844 -4.144531 8.519531 -4.324219 8.574219 -4.464844 C 8.769531 -4.324219 8.609375 -4.25 8.628906 -3.964844 C 8.628906 -3.820312 8.628906 -3.640625 8.644531 -3.480469 C 8.644531 -3.300781 8.664062 -3.140625 8.664062 -2.976562 C 8.679688 -2.796875 8.664062 -2.636719 8.664062 -2.492188 C 8.664062 -2.332031 8.699219 -2.152344 8.699219 -1.953125 C 8.699219 -1.792969 8.679688 -1.613281 8.679688 -1.433594 C 8.679688 -1.238281 8.699219 -1.058594 8.699219 -0.898438 C 8.71875 -0.699219 8.71875 -0.519531 8.734375 -0.359375 C 8.753906 -0.160156 8.859375 -0.0546875 9.003906 0 C 9.128906 0.0703125 9.289062 0.0898438 9.46875 0.0703125 C 9.632812 0.0703125 9.792969 0.0546875 9.9375 0.0351562 C 10.167969 0.0195312 10.332031 0.0195312 10.421875 -0.0351562 C 10.527344 -0.109375 10.5625 -0.234375 10.5625 -0.484375 C 10.546875 -0.628906 10.582031 -0.789062 10.5625 -0.949219 C 10.5625 -1.113281 10.527344 -1.273438 10.527344 -1.433594 C 10.527344 -1.578125 10.511719 -1.738281 10.511719 -1.902344 C 10.511719 -2.0625 10.527344 -2.222656 10.527344 -2.386719 C 10.511719 -2.527344 10.492188 -2.691406 10.472656 -2.851562 C 10.472656 -3.011719 10.492188 -3.175781 10.492188 -3.335938 C 10.492188 -3.496094 10.492188 -3.640625 10.492188 -3.800781 C 10.472656 -3.964844 10.4375 -4.125 10.4375 -4.285156 C 10.4375 -4.449219 10.457031 -4.609375 10.457031 -4.769531 C 10.457031 -4.914062 10.457031 -5.074219 10.4375 -5.238281 C 10.4375 -5.398438 10.402344 -5.558594 10.402344 -5.722656 C 10.402344 -5.863281 10.386719 -6.027344 10.386719 -6.1875 C 10.386719 -6.347656 10.402344 -6.511719 10.386719 -6.652344 C 10.386719 -6.816406 10.402344 -6.976562 10.386719 -7.136719 C 10.386719 -7.28125 10.347656 -7.445312 10.332031 -7.605469 C 10.332031 -7.765625 10.367188 -7.925781 10.367188 -8.070312 C 10.367188 -8.25 10.332031 -8.394531 10.332031 -8.554688 C 10.3125 -8.71875 10.3125 -8.878906 10.3125 -9.023438 C 10.3125 -9.21875 10.222656 -9.34375 10.0625 -9.398438 C 9.953125 -9.453125 9.792969 -9.488281 9.597656 -9.488281 C 9.453125 -9.507812 9.289062 -9.507812 9.128906 -9.523438 C 8.914062 -9.507812 8.753906 -9.433594 8.628906 -9.378906 C 8.449219 -9.289062 8.324219 -9.164062 8.25 -9.023438 C 8.179688 -8.859375 8.160156 -8.679688 8.105469 -8.519531 C 8.035156 -8.359375 7.945312 -8.214844 7.890625 -8.054688 C 7.839844 -7.890625 7.785156 -7.730469 7.730469 -7.570312 C 7.660156 -7.40625 7.585938 -7.265625 7.515625 -7.101562 C 7.460938 -6.941406 7.425781 -6.78125 7.371094 -6.617188 C 7.316406 -6.457031 7.226562 -6.3125 7.175781 -6.152344 C 7.121094 -5.992188 7.066406 -5.828125 7.011719 -5.667969 C 6.941406 -5.507812 6.851562 -5.363281 6.78125 -5.203125 C 6.726562 -5.058594 6.707031 -4.878906 6.652344 -4.71875 C 6.582031 -4.554688 6.492188 -4.414062 6.4375 -4.25 C 6.367188 -4.070312 6.257812 -3.945312 6.132812 -3.75 C 6.042969 -3.625 5.953125 -3.445312 5.828125 -3.246094 C 5.757812 -3.390625 5.703125 -3.550781 5.648438 -3.695312 C 5.578125 -3.855469 5.542969 -4.019531 5.46875 -4.160156 C 5.417969 -4.304688 5.328125 -4.449219 5.273438 -4.609375 C 5.203125 -4.753906 5.164062 -4.914062 5.113281 -5.058594 C 5.039062 -5.21875 4.984375 -5.363281 4.914062 -5.507812 C 4.859375 -5.667969 4.753906 -5.792969 4.699219 -5.953125 C 4.628906 -6.097656 4.554688 -6.242188 4.5 -6.386719 C 4.429688 -6.546875 4.414062 -6.707031 4.339844 -6.851562 C 4.285156 -7.011719 4.179688 -7.136719 4.125 -7.300781 C 4.054688 -7.445312 4 -7.605469 3.929688 -7.75 C 3.875 -7.890625 3.820312 -8.054688 3.765625 -8.214844 C 3.710938 -8.339844 3.675781 -8.5 3.625 -8.628906 C 3.585938 -8.769531 3.535156 -8.914062 3.445312 -9.039062 C 3.371094 -9.148438 3.265625 -9.273438 3.121094 -9.34375 C 3.011719 -9.417969 2.851562 -9.417969 2.691406 -9.453125 C 2.546875 -9.46875 2.402344 -9.488281 2.242188 -9.46875 C 2.007812 -9.507812 1.847656 -9.46875 1.738281 -9.398438 C 1.597656 -9.328125 1.542969 -9.199219 1.507812 -8.96875 C 1.472656 -8.824219 1.472656 -8.644531 1.472656 -8.429688 C 1.453125 -8.285156 1.453125 -8.105469 1.453125 -7.910156 C 1.453125 -7.75 1.453125 -7.570312 1.453125 -7.40625 C 1.433594 -7.246094 1.433594 -7.085938 1.433594 -6.921875 C 1.433594 -6.761719 1.382812 -6.601562 1.382812 -6.457031 C 1.382812 -6.277344 1.398438 -6.117188 1.398438 -5.953125 C 1.398438 -5.792969 1.398438 -5.648438 1.382812 -5.488281 C 1.382812 -5.328125 1.328125 -5.164062 1.328125 -5.003906 C 1.308594 -4.84375 1.328125 -4.679688 1.328125 -4.519531 C 1.308594 -4.359375 1.308594 -4.195312 1.308594 -4.035156 C 1.292969 -3.875 1.308594 -3.710938 1.308594 -3.550781 C 1.308594 -3.390625 1.308594 -3.226562 1.308594 -3.066406 C 1.292969 -2.90625 1.273438 -2.746094 1.273438 -2.582031 C 1.273438 -2.421875 1.238281 -2.261719 1.238281 -2.082031 C 1.238281 -1.9375 1.273438 -1.757812 1.273438 -1.597656 C 1.273438 -1.433594 1.273438 -1.273438 1.273438 -1.113281 C 1.273438 -1.003906 1.238281 -0.789062 1.238281 -0.59375 C 1.21875 -0.359375 1.238281 -0.144531 1.292969 -0.0703125 C 1.363281 0.0351562 1.507812 0.0351562 1.648438 0.0351562 C 1.792969 0.0351562 1.953125 0.0195312 2.0625 0.0351562 C 2.152344 0.0351562 2.367188 0.0351562 2.546875 0.0351562 C 2.761719 0.0351562 2.976562 0.0351562 3.03125 -0.0703125 C 3.101562 -0.199219 3.085938 -0.394531 3.101562 -0.59375 C 3.101562 -0.789062 3.121094 -0.988281 3.140625 -1.128906 C 3.140625 -1.273438 3.121094 -1.453125 3.140625 -1.648438 Z M 3.140625 -1.648438 "/></g></g></g><g fill="#ffcc29" fill-opacity="1"><g transform="translate(196.546536, 258.182264)"><g><path d="M 3.300781 -4.285156 C 3.300781 -4.449219 3.335938 -4.609375 3.335938 -4.769531 C 3.335938 -4.933594 3.335938 -5.09375 3.335938 -5.273438 C 3.335938 -5.433594 3.300781 -5.597656 3.300781 -5.757812 C 3.300781 -5.917969 3.316406 -6.082031 3.316406 -6.257812 C 3.316406 -6.421875 3.300781 -6.582031 3.300781 -6.742188 C 3.300781 -6.90625 3.335938 -7.066406 3.335938 -7.226562 C 3.335938 -7.390625 3.355469 -7.570312 3.355469 -7.710938 C 3.355469 -7.890625 3.335938 -8.054688 3.335938 -8.214844 C 3.335938 -8.394531 3.300781 -8.554688 3.300781 -8.699219 C 3.265625 -8.894531 3.246094 -9.039062 3.191406 -9.164062 C 3.101562 -9.328125 2.996094 -9.398438 2.816406 -9.433594 C 2.691406 -9.453125 2.527344 -9.488281 2.332031 -9.488281 C 2.152344 -9.507812 1.992188 -9.46875 1.867188 -9.453125 C 1.6875 -9.433594 1.578125 -9.363281 1.507812 -9.183594 C 1.453125 -9.074219 1.382812 -8.933594 1.363281 -8.734375 C 1.34375 -8.589844 1.398438 -8.429688 1.398438 -8.25 C 1.398438 -8.089844 1.382812 -7.925781 1.382812 -7.765625 C 1.382812 -7.605469 1.34375 -7.445312 1.34375 -7.28125 C 1.34375 -7.121094 1.382812 -6.960938 1.382812 -6.796875 C 1.382812 -6.636719 1.328125 -6.476562 1.328125 -6.3125 C 1.328125 -6.152344 1.328125 -5.992188 1.328125 -5.828125 C 1.328125 -5.667969 1.34375 -5.507812 1.34375 -5.363281 C 1.34375 -5.203125 1.328125 -5.039062 1.328125 -4.878906 C 1.328125 -4.71875 1.34375 -4.554688 1.34375 -4.394531 C 1.34375 -4.234375 1.328125 -4.070312 1.328125 -3.910156 C 1.328125 -3.75 1.292969 -3.585938 1.292969 -3.425781 C 1.292969 -3.28125 1.308594 -3.121094 1.308594 -2.941406 C 1.308594 -2.796875 1.292969 -2.636719 1.292969 -2.457031 C 1.292969 -2.3125 1.273438 -2.152344 1.273438 -1.972656 C 1.273438 -1.828125 1.308594 -1.667969 1.308594 -1.507812 C 1.308594 -1.34375 1.292969 -1.183594 1.273438 -0.988281 C 1.273438 -0.84375 1.253906 -0.679688 1.253906 -0.484375 C 1.238281 -0.269531 1.34375 -0.144531 1.507812 -0.0546875 C 1.6875 0.0351562 1.902344 0.0898438 2.027344 0.0703125 C 2.1875 0.0703125 2.367188 0.0546875 2.527344 0.0351562 C 2.707031 0.0195312 2.886719 0.0351562 3.03125 -0.0195312 C 3.226562 -0.0898438 3.335938 -0.214844 3.316406 -0.394531 C 3.316406 -0.539062 3.316406 -0.679688 3.316406 -0.808594 C 3.300781 -0.949219 3.300781 -1.09375 3.300781 -1.238281 C 3.300781 -1.382812 3.316406 -1.523438 3.316406 -1.648438 C 3.316406 -1.882812 3.300781 -2.042969 3.316406 -2.1875 C 3.316406 -2.457031 3.316406 -2.582031 3.316406 -2.726562 C 3.316406 -2.851562 3.316406 -2.996094 3.316406 -3.246094 C 3.316406 -3.390625 3.335938 -3.570312 3.335938 -3.800781 C 3.335938 -3.945312 3.300781 -4.105469 3.300781 -4.285156 Z M 3.300781 -4.285156 "/></g></g></g><g fill="#ffcc29" fill-opacity="1"><g transform="translate(203.019953, 258.182264)"><g><path d="M 3.210938 -2.207031 C 3.191406 -2.367188 3.175781 -2.527344 3.15625 -2.707031 C 3.15625 -2.871094 3.175781 -3.050781 3.15625 -3.226562 C 3.15625 -3.390625 3.140625 -3.570312 3.121094 -3.730469 C 3.121094 -3.910156 3.101562 -4.089844 3.101562 -4.25 C 3.085938 -4.429688 3.066406 -4.589844 3.066406 -4.753906 C 3.066406 -4.949219 3.066406 -5.128906 3.066406 -5.273438 C 3.066406 -5.578125 3.085938 -5.757812 3.140625 -5.757812 C 3.210938 -5.757812 3.316406 -5.613281 3.460938 -5.417969 C 3.535156 -5.292969 3.640625 -5.164062 3.730469 -5.023438 C 3.820312 -4.898438 3.875 -4.734375 3.964844 -4.609375 C 4.054688 -4.449219 4.160156 -4.324219 4.25 -4.214844 C 4.324219 -4.089844 4.414062 -3.964844 4.5 -3.839844 C 4.589844 -3.710938 4.664062 -3.570312 4.753906 -3.445312 C 4.84375 -3.335938 4.96875 -3.226562 5.058594 -3.101562 C 5.148438 -2.976562 5.21875 -2.832031 5.308594 -2.707031 C 5.398438 -2.601562 5.488281 -2.476562 5.597656 -2.351562 C 5.6875 -2.222656 5.8125 -2.132812 5.902344 -2.007812 C 5.992188 -1.882812 6.0625 -1.738281 6.152344 -1.613281 C 6.242188 -1.488281 6.332031 -1.363281 6.4375 -1.238281 C 6.527344 -1.128906 6.636719 -1.003906 6.726562 -0.878906 C 6.816406 -0.753906 6.921875 -0.628906 7.011719 -0.519531 C 7.121094 -0.414062 7.226562 -0.285156 7.355469 -0.199219 C 7.480469 -0.125 7.621094 -0.0351562 7.785156 0 C 7.910156 0.0351562 8.070312 0.0195312 8.25 0.0195312 C 8.429688 0.0195312 8.574219 0.0546875 8.664062 0.0351562 C 8.859375 0 8.933594 -0.109375 8.96875 -0.234375 C 8.984375 -0.339844 8.984375 -0.464844 9.003906 -0.664062 C 9.003906 -0.808594 9.023438 -0.96875 9.039062 -1.128906 C 9.039062 -1.292969 9.039062 -1.453125 9.058594 -1.613281 C 9.058594 -1.777344 9.058594 -1.9375 9.074219 -2.097656 C 9.074219 -2.261719 9.039062 -2.421875 9.058594 -2.582031 C 9.058594 -2.746094 9.074219 -2.90625 9.09375 -3.066406 C 9.09375 -3.226562 9.058594 -3.390625 9.058594 -3.550781 C 9.058594 -3.710938 9.09375 -3.875 9.09375 -4.035156 C 9.09375 -4.195312 9.09375 -4.359375 9.09375 -4.519531 C 9.09375 -4.679688 9.128906 -4.84375 9.128906 -5.003906 C 9.128906 -5.164062 9.09375 -5.328125 9.113281 -5.46875 C 9.113281 -5.632812 9.128906 -5.792969 9.128906 -5.953125 C 9.128906 -6.117188 9.113281 -6.277344 9.128906 -6.4375 C 9.128906 -6.601562 9.164062 -6.761719 9.183594 -6.921875 C 9.183594 -7.085938 9.128906 -7.246094 9.128906 -7.40625 C 9.128906 -7.570312 9.164062 -7.730469 9.164062 -7.875 C 9.164062 -8.054688 9.183594 -8.195312 9.183594 -8.359375 C 9.183594 -8.554688 9.164062 -8.734375 9.148438 -8.878906 C 9.113281 -9.09375 9.039062 -9.238281 8.914062 -9.328125 C 8.804688 -9.398438 8.644531 -9.453125 8.410156 -9.453125 C 8.269531 -9.453125 8.105469 -9.398438 7.910156 -9.378906 C 7.75 -9.34375 7.570312 -9.34375 7.390625 -9.308594 C 7.371094 -9.164062 7.355469 -8.984375 7.355469 -8.824219 C 7.355469 -8.664062 7.390625 -8.5 7.390625 -8.339844 C 7.371094 -8.179688 7.371094 -8.035156 7.371094 -7.855469 C 7.371094 -7.710938 7.335938 -7.550781 7.316406 -7.390625 C 7.316406 -7.226562 7.355469 -7.066406 7.355469 -6.90625 C 7.355469 -6.742188 7.335938 -6.582031 7.335938 -6.4375 C 7.335938 -6.277344 7.316406 -6.117188 7.316406 -5.953125 C 7.316406 -5.792969 7.28125 -5.648438 7.28125 -5.488281 C 7.28125 -5.328125 7.265625 -5.164062 7.265625 -5.023438 C 7.265625 -4.84375 7.226562 -4.679688 7.226562 -4.539062 C 7.226562 -4.359375 7.246094 -4.195312 7.246094 -4.070312 C 7.226562 -3.765625 7.210938 -3.585938 7.191406 -3.605469 C 7.121094 -3.765625 7.011719 -3.910156 6.921875 -4.070312 C 6.816406 -4.25 6.707031 -4.414062 6.636719 -4.519531 C 6.546875 -4.644531 6.457031 -4.789062 6.367188 -4.914062 C 6.277344 -5.058594 6.171875 -5.183594 6.082031 -5.328125 C 5.992188 -5.453125 5.902344 -5.597656 5.8125 -5.722656 C 5.722656 -5.863281 5.632812 -5.992188 5.542969 -6.132812 C 5.453125 -6.257812 5.398438 -6.421875 5.308594 -6.566406 C 5.21875 -6.691406 5.09375 -6.816406 5.003906 -6.960938 C 4.914062 -7.085938 4.824219 -7.226562 4.734375 -7.355469 C 4.644531 -7.496094 4.589844 -7.660156 4.5 -7.785156 C 4.414062 -7.925781 4.324219 -8.054688 4.234375 -8.195312 C 4.144531 -8.324219 4.054688 -8.464844 3.964844 -8.589844 C 3.875 -8.734375 3.765625 -8.859375 3.675781 -8.984375 C 3.585938 -9.113281 3.480469 -9.199219 3.355469 -9.273438 C 3.226562 -9.34375 3.101562 -9.398438 2.960938 -9.433594 C 2.816406 -9.453125 2.671875 -9.488281 2.511719 -9.488281 C 2.386719 -9.488281 2.222656 -9.453125 2.082031 -9.433594 C 1.828125 -9.453125 1.667969 -9.453125 1.558594 -9.453125 C 1.328125 -9.433594 1.34375 -9.378906 1.328125 -9.09375 C 1.328125 -8.949219 1.328125 -8.789062 1.328125 -8.628906 C 1.328125 -8.464844 1.34375 -8.304688 1.34375 -8.144531 C 1.34375 -8 1.328125 -7.839844 1.328125 -7.675781 C 1.328125 -7.515625 1.328125 -7.355469 1.328125 -7.191406 C 1.328125 -7.03125 1.292969 -6.871094 1.308594 -6.707031 C 1.308594 -6.566406 1.34375 -6.402344 1.34375 -6.242188 C 1.34375 -6.082031 1.328125 -5.917969 1.328125 -5.757812 C 1.328125 -5.597656 1.328125 -5.453125 1.328125 -5.292969 C 1.328125 -5.128906 1.328125 -4.96875 1.328125 -4.808594 C 1.328125 -4.644531 1.328125 -4.484375 1.328125 -4.339844 C 1.328125 -4.179688 1.328125 -4.019531 1.328125 -3.855469 C 1.328125 -3.710938 1.328125 -3.550781 1.328125 -3.390625 C 1.328125 -3.226562 1.34375 -3.085938 1.328125 -2.921875 C 1.328125 -2.761719 1.328125 -2.601562 1.328125 -2.4375 C 1.328125 -2.277344 1.34375 -2.117188 1.34375 -1.953125 C 1.34375 -1.792969 1.34375 -1.648438 1.34375 -1.488281 C 1.34375 -1.328125 1.34375 -1.164062 1.34375 -1.023438 C 1.34375 -0.859375 1.34375 -0.699219 1.34375 -0.539062 C 1.34375 -0.359375 1.382812 -0.234375 1.453125 -0.144531 C 1.523438 -0.0351562 1.648438 0 1.8125 0.0351562 C 1.9375 0.0546875 2.082031 0.0546875 2.242188 0.0546875 C 2.421875 0.0546875 2.566406 0.0703125 2.691406 0.0546875 C 2.871094 0.0195312 3.03125 -0.0195312 3.121094 -0.109375 C 3.210938 -0.214844 3.246094 -0.359375 3.246094 -0.554688 C 3.246094 -0.699219 3.246094 -0.914062 3.246094 -1.113281 C 3.226562 -1.328125 3.226562 -1.523438 3.226562 -1.6875 C 3.210938 -1.847656 3.210938 -2.007812 3.210938 -2.207031 Z M 3.210938 -2.207031 "/></g></g></g><g fill="#ffcc29" fill-opacity="1"><g transform="translate(215.26657, 258.182264)"><g><path d="M 7.660156 -3.085938 C 7.605469 -2.921875 7.585938 -2.78125 7.515625 -2.65625 C 7.445312 -2.492188 7.355469 -2.367188 7.246094 -2.261719 C 7.136719 -2.132812 7.011719 -2.0625 6.871094 -1.972656 C 6.742188 -1.882812 6.601562 -1.828125 6.457031 -1.757812 C 6.3125 -1.722656 6.171875 -1.667969 6.007812 -1.632812 C 5.828125 -1.597656 5.667969 -1.613281 5.488281 -1.613281 C 5.308594 -1.613281 5.128906 -1.597656 4.96875 -1.613281 C 4.789062 -1.648438 4.628906 -1.722656 4.484375 -1.777344 C 4.304688 -1.847656 4.160156 -1.9375 4.035156 -2.027344 C 3.875 -2.132812 3.75 -2.242188 3.660156 -2.367188 C 3.570312 -2.527344 3.515625 -2.671875 3.425781 -2.816406 C 3.355469 -2.976562 3.300781 -3.121094 3.226562 -3.28125 C 3.175781 -3.445312 3.101562 -3.585938 3.066406 -3.75 C 3.011719 -3.910156 2.976562 -4.070312 2.941406 -4.234375 C 2.921875 -4.414062 2.960938 -4.574219 2.941406 -4.734375 C 2.941406 -4.914062 2.90625 -5.074219 2.921875 -5.238281 C 2.921875 -5.398438 2.976562 -5.558594 3.011719 -5.738281 C 3.050781 -5.902344 3.066406 -6.0625 3.121094 -6.222656 C 3.175781 -6.386719 3.300781 -6.511719 3.371094 -6.671875 C 3.445312 -6.832031 3.496094 -6.996094 3.605469 -7.121094 C 3.710938 -7.265625 3.855469 -7.371094 4 -7.480469 C 4.144531 -7.585938 4.285156 -7.675781 4.449219 -7.75 C 4.589844 -7.820312 4.769531 -7.855469 4.933594 -7.890625 C 5.113281 -7.925781 5.273438 -7.964844 5.453125 -7.945312 C 5.632812 -7.945312 5.792969 -7.910156 5.972656 -7.875 C 6.132812 -7.839844 6.332031 -7.839844 6.492188 -7.765625 C 6.652344 -7.710938 6.796875 -7.585938 6.941406 -7.496094 C 7.066406 -7.425781 7.265625 -7.335938 7.445312 -7.226562 C 7.605469 -7.121094 7.765625 -6.976562 7.910156 -6.90625 C 8.070312 -6.832031 8.214844 -6.796875 8.339844 -6.816406 C 8.484375 -6.851562 8.609375 -6.921875 8.734375 -7.03125 C 8.84375 -7.121094 8.949219 -7.226562 9.058594 -7.371094 C 9.21875 -7.550781 9.308594 -7.730469 9.308594 -7.890625 C 9.34375 -8.070312 9.289062 -8.269531 9.113281 -8.429688 C 9.003906 -8.539062 8.84375 -8.609375 8.71875 -8.699219 C 8.589844 -8.789062 8.464844 -8.878906 8.324219 -8.96875 C 8.179688 -9.039062 8.054688 -9.164062 7.910156 -9.21875 C 7.765625 -9.289062 7.605469 -9.308594 7.460938 -9.363281 C 7.300781 -9.417969 7.15625 -9.46875 6.996094 -9.507812 C 6.832031 -9.542969 6.691406 -9.578125 6.527344 -9.597656 C 6.367188 -9.632812 6.207031 -9.632812 6.042969 -9.632812 C 5.882812 -9.648438 5.722656 -9.613281 5.558594 -9.613281 C 5.398438 -9.613281 5.238281 -9.648438 5.074219 -9.632812 C 4.914062 -9.613281 4.753906 -9.578125 4.609375 -9.558594 C 4.429688 -9.523438 4.285156 -9.46875 4.125 -9.433594 C 3.945312 -9.378906 3.800781 -9.328125 3.640625 -9.273438 C 3.480469 -9.21875 3.316406 -9.183594 3.175781 -9.113281 C 3.011719 -9.039062 2.871094 -8.949219 2.746094 -8.859375 C 2.601562 -8.769531 2.457031 -8.664062 2.332031 -8.554688 C 2.207031 -8.449219 2.117188 -8.304688 2.007812 -8.179688 C 1.882812 -8.054688 1.777344 -7.945312 1.6875 -7.800781 C 1.597656 -7.660156 1.488281 -7.515625 1.417969 -7.371094 C 1.363281 -7.191406 1.328125 -7.03125 1.292969 -6.851562 C 1.238281 -6.691406 1.203125 -6.511719 1.164062 -6.347656 C 1.128906 -6.1875 1.09375 -6.007812 1.058594 -5.847656 C 1.039062 -5.667969 1.023438 -5.488281 1.003906 -5.328125 C 0.988281 -5.148438 0.933594 -4.984375 0.933594 -4.808594 C 0.914062 -4.628906 0.96875 -4.464844 0.96875 -4.285156 C 0.988281 -4.105469 0.96875 -3.945312 0.988281 -3.765625 C 1.003906 -3.585938 1.039062 -3.425781 1.074219 -3.246094 C 1.128906 -3.085938 1.148438 -2.90625 1.203125 -2.746094 C 1.253906 -2.582031 1.328125 -2.421875 1.398438 -2.261719 C 1.453125 -2.097656 1.523438 -1.953125 1.613281 -1.8125 C 1.6875 -1.667969 1.757812 -1.523438 1.867188 -1.398438 C 1.953125 -1.273438 2.082031 -1.148438 2.1875 -1.039062 C 2.3125 -0.914062 2.421875 -0.808594 2.546875 -0.699219 C 2.671875 -0.59375 2.816406 -0.503906 2.960938 -0.414062 C 3.085938 -0.324219 3.246094 -0.269531 3.390625 -0.199219 C 3.535156 -0.125 3.675781 -0.0351562 3.839844 0.0195312 C 4 0.0703125 4.160156 0.0703125 4.324219 0.109375 C 4.484375 0.144531 4.628906 0.214844 4.808594 0.234375 C 4.96875 0.25 5.128906 0.25 5.308594 0.269531 C 5.46875 0.269531 5.632812 0.214844 5.8125 0.199219 C 5.972656 0.179688 6.132812 0.199219 6.3125 0.160156 C 6.476562 0.125 6.636719 0.0898438 6.796875 0.0546875 C 6.960938 0 7.101562 -0.0898438 7.265625 -0.144531 C 7.40625 -0.214844 7.570312 -0.269531 7.730469 -0.339844 C 7.875 -0.414062 8.015625 -0.484375 8.160156 -0.59375 C 8.304688 -0.679688 8.410156 -0.824219 8.539062 -0.933594 C 8.664062 -1.039062 8.804688 -1.113281 8.933594 -1.238281 C 9.039062 -1.363281 9.113281 -1.523438 9.199219 -1.667969 C 9.289062 -1.792969 9.398438 -1.9375 9.46875 -2.082031 C 9.542969 -2.242188 9.597656 -2.386719 9.667969 -2.546875 C 9.722656 -2.707031 9.773438 -2.851562 9.8125 -3.03125 C 9.863281 -3.191406 9.863281 -3.355469 9.882812 -3.515625 C 9.902344 -3.675781 9.9375 -3.855469 9.9375 -4.019531 C 9.953125 -4.179688 9.953125 -4.359375 9.9375 -4.539062 C 9.9375 -4.699219 9.863281 -4.859375 9.773438 -5.003906 C 9.683594 -5.128906 9.578125 -5.253906 9.378906 -5.308594 C 9.253906 -5.363281 9.074219 -5.363281 8.878906 -5.363281 C 8.71875 -5.363281 8.554688 -5.363281 8.394531 -5.363281 C 8.234375 -5.378906 8.089844 -5.378906 7.925781 -5.378906 C 7.765625 -5.398438 7.605469 -5.398438 7.460938 -5.398438 C 7.300781 -5.398438 7.136719 -5.433594 6.976562 -5.433594 C 6.832031 -5.433594 6.671875 -5.453125 6.511719 -5.453125 C 6.347656 -5.453125 6.1875 -5.433594 6.027344 -5.433594 C 5.882812 -5.433594 5.722656 -5.398438 5.558594 -5.398438 C 5.398438 -5.378906 5.253906 -5.417969 5.074219 -5.398438 C 4.96875 -5.398438 4.914062 -5.21875 4.859375 -5.023438 C 4.808594 -4.859375 4.753906 -4.679688 4.734375 -4.574219 C 4.734375 -4.449219 4.734375 -4.269531 4.789062 -4.125 C 4.824219 -3.964844 4.933594 -3.855469 5.039062 -3.765625 C 5.164062 -3.695312 5.292969 -3.640625 5.453125 -3.625 C 5.597656 -3.605469 5.757812 -3.625 5.902344 -3.625 C 6.082031 -3.625 6.222656 -3.570312 6.367188 -3.570312 C 6.527344 -3.550781 6.671875 -3.535156 6.832031 -3.535156 C 6.976562 -3.535156 7.121094 -3.535156 7.300781 -3.535156 C 7.425781 -3.515625 7.585938 -3.550781 7.765625 -3.550781 C 7.75 -3.390625 7.695312 -3.226562 7.660156 -3.085938 Z M 7.660156 -3.085938 "/></g></g></g></svg>